<mxfile host="app.diagrams.net" modified="2023-08-25T01:31:27.108Z" agent="Mozilla/5.0 (Windows NT 10.0; Win64; x64) AppleWebKit/537.36 (KHTML, like Gecko) Chrome/114.0.0.0 Safari/537.36" etag="nZQAPXG7_12eJyDlWRP8" version="21.6.6" type="github">
  <diagram name="第 1 页" id="shTC8Z6--Nmm1lQACW7x">
    <mxGraphModel dx="818" dy="492" grid="1" gridSize="10" guides="1" tooltips="1" connect="1" arrows="1" fold="1" page="1" pageScale="1" pageWidth="1169" pageHeight="827" math="0" shadow="0">
      <root>
        <mxCell id="0" />
        <mxCell id="1" parent="0" />
        <mxCell id="ozwnez7hy_r3zfRa-a8K-2" value="AA0" style="whiteSpace=wrap;html=1;aspect=fixed;strokeColor=#0000FF;" vertex="1" parent="1">
          <mxGeometry x="160" y="80" width="40" height="40" as="geometry" />
        </mxCell>
        <mxCell id="ozwnez7hy_r3zfRa-a8K-3" value="AH0" style="whiteSpace=wrap;html=1;aspect=fixed;strokeColor=#0000FF;" vertex="1" parent="1">
          <mxGeometry x="200" y="80" width="40" height="40" as="geometry" />
        </mxCell>
        <mxCell id="ozwnez7hy_r3zfRa-a8K-4" value="AV0" style="whiteSpace=wrap;html=1;aspect=fixed;strokeColor=#0000FF;" vertex="1" parent="1">
          <mxGeometry x="160" y="120" width="40" height="40" as="geometry" />
        </mxCell>
        <mxCell id="ozwnez7hy_r3zfRa-a8K-5" value="AD0" style="whiteSpace=wrap;html=1;aspect=fixed;strokeColor=#0000FF;" vertex="1" parent="1">
          <mxGeometry x="200" y="120" width="40" height="40" as="geometry" />
        </mxCell>
        <mxCell id="ozwnez7hy_r3zfRa-a8K-6" value="HA0" style="whiteSpace=wrap;html=1;aspect=fixed;strokeColor=#b85450;fillColor=#f8cecc;" vertex="1" parent="1">
          <mxGeometry x="240" y="80" width="40" height="40" as="geometry" />
        </mxCell>
        <mxCell id="ozwnez7hy_r3zfRa-a8K-7" value="HH0" style="whiteSpace=wrap;html=1;aspect=fixed;strokeColor=#b85450;fillColor=#f8cecc;" vertex="1" parent="1">
          <mxGeometry x="280" y="80" width="40" height="40" as="geometry" />
        </mxCell>
        <mxCell id="ozwnez7hy_r3zfRa-a8K-8" value="HV0" style="whiteSpace=wrap;html=1;aspect=fixed;strokeColor=#b85450;fillColor=#f8cecc;" vertex="1" parent="1">
          <mxGeometry x="240" y="120" width="40" height="40" as="geometry" />
        </mxCell>
        <mxCell id="ozwnez7hy_r3zfRa-a8K-9" value="HD0" style="whiteSpace=wrap;html=1;aspect=fixed;strokeColor=#b85450;fillColor=#f8cecc;" vertex="1" parent="1">
          <mxGeometry x="280" y="120" width="40" height="40" as="geometry" />
        </mxCell>
        <mxCell id="ozwnez7hy_r3zfRa-a8K-10" value="VA0" style="whiteSpace=wrap;html=1;aspect=fixed;strokeColor=#b46504;fillColor=#fad7ac;" vertex="1" parent="1">
          <mxGeometry x="160" y="160" width="40" height="40" as="geometry" />
        </mxCell>
        <mxCell id="ozwnez7hy_r3zfRa-a8K-11" value="VH0" style="whiteSpace=wrap;html=1;aspect=fixed;strokeColor=#b46504;fillColor=#fad7ac;" vertex="1" parent="1">
          <mxGeometry x="200" y="160" width="40" height="40" as="geometry" />
        </mxCell>
        <mxCell id="ozwnez7hy_r3zfRa-a8K-12" value="VV0" style="whiteSpace=wrap;html=1;aspect=fixed;strokeColor=#b46504;fillColor=#fad7ac;" vertex="1" parent="1">
          <mxGeometry x="160" y="200" width="40" height="40" as="geometry" />
        </mxCell>
        <mxCell id="ozwnez7hy_r3zfRa-a8K-13" value="VD0" style="whiteSpace=wrap;html=1;aspect=fixed;strokeColor=#b46504;fillColor=#fad7ac;" vertex="1" parent="1">
          <mxGeometry x="200" y="200" width="40" height="40" as="geometry" />
        </mxCell>
        <mxCell id="ozwnez7hy_r3zfRa-a8K-14" value="DA0" style="whiteSpace=wrap;html=1;aspect=fixed;strokeColor=#6c8ebf;fillColor=#dae8fc;" vertex="1" parent="1">
          <mxGeometry x="240" y="160" width="40" height="40" as="geometry" />
        </mxCell>
        <mxCell id="ozwnez7hy_r3zfRa-a8K-15" value="DH0" style="whiteSpace=wrap;html=1;aspect=fixed;strokeColor=#6c8ebf;fillColor=#dae8fc;" vertex="1" parent="1">
          <mxGeometry x="280" y="160" width="40" height="40" as="geometry" />
        </mxCell>
        <mxCell id="ozwnez7hy_r3zfRa-a8K-16" value="DV0" style="whiteSpace=wrap;html=1;aspect=fixed;strokeColor=#6c8ebf;fillColor=#dae8fc;" vertex="1" parent="1">
          <mxGeometry x="240" y="200" width="40" height="40" as="geometry" />
        </mxCell>
        <mxCell id="ozwnez7hy_r3zfRa-a8K-17" value="DD0" style="whiteSpace=wrap;html=1;aspect=fixed;strokeColor=#6c8ebf;fillColor=#dae8fc;" vertex="1" parent="1">
          <mxGeometry x="280" y="200" width="40" height="40" as="geometry" />
        </mxCell>
        <mxCell id="ozwnez7hy_r3zfRa-a8K-18" value="AA1" style="whiteSpace=wrap;html=1;aspect=fixed;strokeColor=#0000FF;" vertex="1" parent="1">
          <mxGeometry x="320" y="80" width="40" height="40" as="geometry" />
        </mxCell>
        <mxCell id="ozwnez7hy_r3zfRa-a8K-19" value="AH1" style="whiteSpace=wrap;html=1;aspect=fixed;strokeColor=#0000FF;" vertex="1" parent="1">
          <mxGeometry x="360" y="80" width="40" height="40" as="geometry" />
        </mxCell>
        <mxCell id="ozwnez7hy_r3zfRa-a8K-20" value="AV1" style="whiteSpace=wrap;html=1;aspect=fixed;strokeColor=#0000FF;" vertex="1" parent="1">
          <mxGeometry x="320" y="120" width="40" height="40" as="geometry" />
        </mxCell>
        <mxCell id="ozwnez7hy_r3zfRa-a8K-21" value="AD1" style="whiteSpace=wrap;html=1;aspect=fixed;strokeColor=#0000FF;" vertex="1" parent="1">
          <mxGeometry x="360" y="120" width="40" height="40" as="geometry" />
        </mxCell>
        <mxCell id="ozwnez7hy_r3zfRa-a8K-22" value="HA1" style="whiteSpace=wrap;html=1;aspect=fixed;strokeColor=#b85450;fillColor=#f8cecc;" vertex="1" parent="1">
          <mxGeometry x="400" y="80" width="40" height="40" as="geometry" />
        </mxCell>
        <mxCell id="ozwnez7hy_r3zfRa-a8K-23" value="HH1" style="whiteSpace=wrap;html=1;aspect=fixed;strokeColor=#b85450;fillColor=#f8cecc;" vertex="1" parent="1">
          <mxGeometry x="440" y="80" width="40" height="40" as="geometry" />
        </mxCell>
        <mxCell id="ozwnez7hy_r3zfRa-a8K-24" value="HV1" style="whiteSpace=wrap;html=1;aspect=fixed;strokeColor=#b85450;fillColor=#f8cecc;" vertex="1" parent="1">
          <mxGeometry x="400" y="120" width="40" height="40" as="geometry" />
        </mxCell>
        <mxCell id="ozwnez7hy_r3zfRa-a8K-25" value="HD1" style="whiteSpace=wrap;html=1;aspect=fixed;strokeColor=#b85450;fillColor=#f8cecc;" vertex="1" parent="1">
          <mxGeometry x="440" y="120" width="40" height="40" as="geometry" />
        </mxCell>
        <mxCell id="ozwnez7hy_r3zfRa-a8K-26" value="VA1" style="whiteSpace=wrap;html=1;aspect=fixed;strokeColor=#b46504;fillColor=#fad7ac;" vertex="1" parent="1">
          <mxGeometry x="320" y="160" width="40" height="40" as="geometry" />
        </mxCell>
        <mxCell id="ozwnez7hy_r3zfRa-a8K-27" value="VH1" style="whiteSpace=wrap;html=1;aspect=fixed;strokeColor=#b46504;fillColor=#fad7ac;" vertex="1" parent="1">
          <mxGeometry x="360" y="160" width="40" height="40" as="geometry" />
        </mxCell>
        <mxCell id="ozwnez7hy_r3zfRa-a8K-28" value="VV1" style="whiteSpace=wrap;html=1;aspect=fixed;strokeColor=#b46504;fillColor=#fad7ac;" vertex="1" parent="1">
          <mxGeometry x="320" y="200" width="40" height="40" as="geometry" />
        </mxCell>
        <mxCell id="ozwnez7hy_r3zfRa-a8K-29" value="VD1" style="whiteSpace=wrap;html=1;aspect=fixed;strokeColor=#b46504;fillColor=#fad7ac;" vertex="1" parent="1">
          <mxGeometry x="360" y="200" width="40" height="40" as="geometry" />
        </mxCell>
        <mxCell id="ozwnez7hy_r3zfRa-a8K-30" value="DA1" style="whiteSpace=wrap;html=1;aspect=fixed;strokeColor=#6c8ebf;fillColor=#dae8fc;" vertex="1" parent="1">
          <mxGeometry x="400" y="160" width="40" height="40" as="geometry" />
        </mxCell>
        <mxCell id="ozwnez7hy_r3zfRa-a8K-31" value="DH1" style="whiteSpace=wrap;html=1;aspect=fixed;strokeColor=#6c8ebf;fillColor=#dae8fc;" vertex="1" parent="1">
          <mxGeometry x="440" y="160" width="40" height="40" as="geometry" />
        </mxCell>
        <mxCell id="ozwnez7hy_r3zfRa-a8K-32" value="DV1" style="whiteSpace=wrap;html=1;aspect=fixed;strokeColor=#6c8ebf;fillColor=#dae8fc;" vertex="1" parent="1">
          <mxGeometry x="400" y="200" width="40" height="40" as="geometry" />
        </mxCell>
        <mxCell id="ozwnez7hy_r3zfRa-a8K-33" value="DD1" style="whiteSpace=wrap;html=1;aspect=fixed;strokeColor=#6c8ebf;fillColor=#dae8fc;" vertex="1" parent="1">
          <mxGeometry x="440" y="200" width="40" height="40" as="geometry" />
        </mxCell>
        <mxCell id="ozwnez7hy_r3zfRa-a8K-34" value="AA0" style="whiteSpace=wrap;html=1;aspect=fixed;strokeColor=#0000FF;" vertex="1" parent="1">
          <mxGeometry x="160" y="320" width="40" height="40" as="geometry" />
        </mxCell>
        <mxCell id="ozwnez7hy_r3zfRa-a8K-35" value="AA1" style="whiteSpace=wrap;html=1;aspect=fixed;strokeColor=#0000FF;" vertex="1" parent="1">
          <mxGeometry x="200" y="320" width="40" height="40" as="geometry" />
        </mxCell>
        <mxCell id="ozwnez7hy_r3zfRa-a8K-36" value="AA offset" style="text;html=1;strokeColor=none;fillColor=none;align=center;verticalAlign=middle;whiteSpace=wrap;rounded=0;" vertex="1" parent="1">
          <mxGeometry x="40" y="320" width="60" height="40" as="geometry" />
        </mxCell>
        <mxCell id="ozwnez7hy_r3zfRa-a8K-37" value="AH0" style="whiteSpace=wrap;html=1;aspect=fixed;strokeColor=#0000FF;" vertex="1" parent="1">
          <mxGeometry x="160" y="380" width="40" height="40" as="geometry" />
        </mxCell>
        <mxCell id="ozwnez7hy_r3zfRa-a8K-38" value="AH1" style="whiteSpace=wrap;html=1;aspect=fixed;strokeColor=#0000FF;" vertex="1" parent="1">
          <mxGeometry x="200" y="380" width="40" height="40" as="geometry" />
        </mxCell>
        <mxCell id="ozwnez7hy_r3zfRa-a8K-39" value="AH offset" style="text;html=1;strokeColor=none;fillColor=none;align=center;verticalAlign=middle;whiteSpace=wrap;rounded=0;" vertex="1" parent="1">
          <mxGeometry x="40" y="380" width="60" height="40" as="geometry" />
        </mxCell>
        <mxCell id="ozwnez7hy_r3zfRa-a8K-40" value="" style="endArrow=classic;html=1;rounded=0;exitX=0.5;exitY=0;exitDx=0;exitDy=0;entryX=0.5;entryY=0;entryDx=0;entryDy=0;" edge="1" parent="1" source="ozwnez7hy_r3zfRa-a8K-4" target="ozwnez7hy_r3zfRa-a8K-34">
          <mxGeometry width="50" height="50" relative="1" as="geometry">
            <mxPoint x="400" y="280" as="sourcePoint" />
            <mxPoint x="450" y="230" as="targetPoint" />
          </mxGeometry>
        </mxCell>
        <mxCell id="ozwnez7hy_r3zfRa-a8K-41" value="" style="endArrow=classic;html=1;rounded=0;exitX=0.5;exitY=0;exitDx=0;exitDy=0;entryX=0.5;entryY=0;entryDx=0;entryDy=0;" edge="1" parent="1" source="ozwnez7hy_r3zfRa-a8K-20" target="ozwnez7hy_r3zfRa-a8K-35">
          <mxGeometry width="50" height="50" relative="1" as="geometry">
            <mxPoint x="400" y="280" as="sourcePoint" />
            <mxPoint x="450" y="230" as="targetPoint" />
          </mxGeometry>
        </mxCell>
        <mxCell id="ozwnez7hy_r3zfRa-a8K-42" value="DV0" style="whiteSpace=wrap;html=1;aspect=fixed;strokeColor=#0000FF;" vertex="1" parent="1">
          <mxGeometry x="160" y="480" width="40" height="40" as="geometry" />
        </mxCell>
        <mxCell id="ozwnez7hy_r3zfRa-a8K-43" value="DV1" style="whiteSpace=wrap;html=1;aspect=fixed;strokeColor=#0000FF;" vertex="1" parent="1">
          <mxGeometry x="200" y="480" width="40" height="40" as="geometry" />
        </mxCell>
        <mxCell id="ozwnez7hy_r3zfRa-a8K-44" value="DV offset" style="text;html=1;strokeColor=none;fillColor=none;align=center;verticalAlign=middle;whiteSpace=wrap;rounded=0;" vertex="1" parent="1">
          <mxGeometry x="40" y="480" width="60" height="40" as="geometry" />
        </mxCell>
        <mxCell id="ozwnez7hy_r3zfRa-a8K-45" value="DD0" style="whiteSpace=wrap;html=1;aspect=fixed;strokeColor=#0000FF;" vertex="1" parent="1">
          <mxGeometry x="160" y="540" width="40" height="40" as="geometry" />
        </mxCell>
        <mxCell id="ozwnez7hy_r3zfRa-a8K-46" value="DD1" style="whiteSpace=wrap;html=1;aspect=fixed;strokeColor=#0000FF;" vertex="1" parent="1">
          <mxGeometry x="200" y="540" width="40" height="40" as="geometry" />
        </mxCell>
        <mxCell id="ozwnez7hy_r3zfRa-a8K-47" value="DD offset" style="text;html=1;strokeColor=none;fillColor=none;align=center;verticalAlign=middle;whiteSpace=wrap;rounded=0;" vertex="1" parent="1">
          <mxGeometry x="40" y="540" width="60" height="40" as="geometry" />
        </mxCell>
        <mxCell id="ozwnez7hy_r3zfRa-a8K-48" value="......" style="text;html=1;strokeColor=none;fillColor=none;align=center;verticalAlign=middle;whiteSpace=wrap;rounded=0;" vertex="1" parent="1">
          <mxGeometry x="80" y="430" width="60" height="30" as="geometry" />
        </mxCell>
        <mxCell id="ozwnez7hy_r3zfRa-a8K-49" value="" style="shape=curlyBracket;whiteSpace=wrap;html=1;rounded=1;flipH=1;labelPosition=right;verticalLabelPosition=middle;align=left;verticalAlign=middle;rotation=-90;" vertex="1" parent="1">
          <mxGeometry x="230" y="-15" width="20" height="160" as="geometry" />
        </mxCell>
      </root>
    </mxGraphModel>
  </diagram>
</mxfile>
